<?xml version="1.0" encoding="UTF-8" standalone="no"?>
<!-- Created with Inkscape (http://www.inkscape.org/) -->

<svg
   width="31.999998"
   height="31.999998"
   viewBox="0 0 8.4666661 8.4666661"
   version="1.1"
   id="svg5"
   inkscape:export-filename="bagelLogo.svg"
   inkscape:export-xdpi="96"
   inkscape:export-ydpi="96"
   xmlns:inkscape="http://www.inkscape.org/namespaces/inkscape"
   xmlns:sodipodi="http://sodipodi.sourceforge.net/DTD/sodipodi-0.dtd"
   xmlns="http://www.w3.org/2000/svg"
   xmlns:svg="http://www.w3.org/2000/svg">
  <sodipodi:namedview
     id="namedview7"
     pagecolor="#ffffff"
     bordercolor="#000000"
     borderopacity="0.25"
     inkscape:showpageshadow="2"
     inkscape:pageopacity="0"
     inkscape:pagecheckerboard="0"
     inkscape:deskcolor="#d1d1d1"
     inkscape:document-units="mm"
     showgrid="false"
     showguides="true">
    <sodipodi:guide
       position="-96.730999,-118.71668"
       orientation="0,-1"
       id="guide1324"
       inkscape:locked="false" />
    <sodipodi:guide
       position="-69.682146,-128.74804"
       orientation="0,-1"
       id="guide4444"
       inkscape:locked="false" />
  </sodipodi:namedview>
  <defs
     id="defs2" />
  <g
     inkscape:label="Layer 1"
     inkscape:groupmode="layer"
     id="layer1">
    <path
       style="fill:#ffdf7e;fill-opacity:1;stroke:none;stroke-width:0.0744303;stroke-dasharray:none;stroke-opacity:1"
       d="M 3.8180505,6.2883208 C 3.7868995,6.2854095 3.6764881,6.2781312 3.5726723,6.269834 3.4688551,6.2625556 3.2989831,6.2449423 3.1951687,6.2314047 2.1753549,6.0989402 1.3204592,5.7963679 0.7275161,5.3580704 0.5715441,5.2427826 0.31328773,4.9742435 0.23261679,4.8434967 -0.0126143,4.4459866 -0.01908174,4.0380685 0.21373704,3.6529315 l 0.0588079,-0.097238 0.1463427,0.1069902 C 0.79678421,3.9389088 1.169062,4.1648265 1.5844882,4.3700155 1.9277722,4.5395846 2.1151455,4.6174767 2.432794,4.7226914 3.0243355,4.918637 3.5495675,5.0037345 4.1703881,5.0042295 4.8105965,5.0047389 5.3622109,4.9151441 5.9877259,4.7091393 6.6610969,4.4873412 7.4647143,4.0730037 8.1039677,3.618039 l 0.089334,-0.063612 0.059187,0.097966 C 8.5011815,4.0637754 8.4772039,4.5025386 8.1834761,4.9152749 8.0882909,5.0490496 7.8533046,5.2783588 7.6992891,5.3878239 7.0422141,5.8548125 6.1091906,6.1553322 4.9757367,6.2650157 4.7826151,6.2836482 3.9646362,6.3002426 3.8180592,6.2883064 Z"
       id="path4576" />
    <path
       style="fill:#fea75f;fill-opacity:1;stroke:none;stroke-width:0.0744303;stroke-dasharray:none;stroke-opacity:1"
       d="M 1.2083603,4.0294365 C 0.92435331,3.8644963 0.35980697,3.4812808 0.35980697,3.4534197 c 0,-0.020379 0.27294827,-0.274784 0.38238004,-0.3564754 C 1.3722015,2.6266079 2.3389741,2.3118809 3.5056708,2.1973209 3.7870954,2.1696639 4.6273325,2.1660239 4.9024351,2.1915009 6.0816359,2.2996564 7.0225068,2.5967114 7.698683,3.0745007 7.838484,3.1733397 8.119699,3.4406852 8.1064045,3.4621852 8.0803185,3.5043982 7.4047675,3.9309642 7.1347639,4.0757143 L 7.0202765,4.1369971 6.8642173,4.0630499 C 6.1588977,3.7286984 5.4653978,3.5241206 4.7199733,3.4304785 4.4666299,3.3987452 3.7759495,3.3988907 3.5182536,3.4308569 2.8423962,3.5147026 2.2298292,3.7050439 1.6084934,4.024167 1.4936136,4.083121 1.3960291,4.1314482 1.3916533,4.1314482 c -0.00437,0 -0.086858,-0.045853 -0.1832946,-0.101895 z"
       id="path4647" />
  </g>
</svg>
